 http://www.torrentkit.com  

who care what we share? support us by seeding back,
and don\\\'t forget to visit

---------------------------------------------------------------------------

 
http://ecx.images-amazon.com/images/I/61uJedJHGTL._SL500_.jpg


Just.For.Laughs.Working.Class.Comics.2009.DVDRip.XviD-SPRiNTER


[info][b]
Subtitles: N/A
Date: 2011.01
Genre: Comedy | Stand-Up
Format/Info: Audio Video Interleave
File size: 701 MiB
Duration: 1h 36mn
Overall bit rate: 1 013 Kbps
Writing application: VirtualDubMod 1.5.10.2 (build 2540/release)
Writing library: VirtualDubMod build 2540/release
ID: 0
Format: MPEG-4 Visual
Format profile: Advanced Simple@L5
Format settings, BVOP: Yes
Format settings, QPel: No
Format settings, GMC: No warppoints
Format settings, Matrix: Default (H.263)
Codec ID: XVID
Codec ID/Hint: XviD
Duration: 1h 36mn
Bit rate: 856 Kbps
Width: 560 pixels
Height: 416 pixels
Display aspect ratio: 4:3
Frame rate: 29.970 fps
Color space: YUV
Chroma subsampling: 4:2:0
Bit depth: 8 bits
Scan type: Progressive
Bits/(Pixel*Frame): 0.123
Stream size: 592 MiB (85%)
Writing library: XviD 1.1.2 (UTC 2006-11-01)
ID: 1
Format: MPEG Audio
Format version: Version 1
Format profile: Layer 3
Codec ID: 55
Codec ID/Hint: MP3
Duration: 1h 36mn
Bit rate mode: Variable
Bit rate: 143 Kbps
Minimum bit rate: 128 Kbps
Channel(s): 2 channels
Sampling rate: 48.0 KHz
Stream size: 98.8 MiB (14%)
Alignment: Aligned on interleaves
Interleave, duration: 24 ms (0.72 video frame)
Interleave, preload duration: 129 ms
Writing library: LAME3.95
Encoding settings: -m s -V 6 -q 3 -lowpass 16 --vbr-old -b 128[/b



----------------------------------------------------------------------------
 
http://www.torrentkit.com thanks for supporting with server cast,